<?xml version="1.0" encoding="utf-8"?>
<!-- Generator: Adobe Illustrator 16.0.3, SVG Export Plug-In . SVG Version: 6.00 Build 0)  -->
<!DOCTYPE svg PUBLIC "-//W3C//DTD SVG 1.1//EN" "http://www.w3.org/Graphics/SVG/1.1/DTD/svg11.dtd">
<svg version="1.1" id="Warstwa_2" xmlns="http://www.w3.org/2000/svg" xmlns:xlink="http://www.w3.org/1999/xlink" x="0px" y="0px"
	 width="200px" height="15px" viewBox="0 0 200 15" enable-background="new 0 0 200 15" xml:space="preserve">
<path d="M0,15V5.313l4.27,0.708l4,1.792l2.083,1.646l1.354,0.729l1.875,0.167l2.042-0.604l2.25,0.021l1.875-0.459l1.563-1.063
	l1.458-1.646c0,0,1.979-1.292,2.042-1.333s2.5-0.375,2.5-0.375l4.542,0.458c0,0,1.104,0.583,1.167,0.604s2.563,0.958,2.563,0.958
	l3.708,1.125c0,0,1.646,0.479,2.042,0.604s1.917,0.396,1.979,0.396s1.854,0,2.375-0.063s2.188-0.208,2.563-0.313
	s2.333-0.771,2.646-0.875s2.729-1.083,2.729-1.083l2.5-0.875c0,0,3.354-0.438,3.646-0.458s2.354,0,2.354,0s1.271,0.584,1.417,0.729
	s0.771,0.875,0.896,0.792s1.063-0.75,1.125-0.771s1.271-0.396,1.646-0.25s2.104,0.708,2.396,0.813s2.333,0.854,2.542,1.042
	s1.542,1.146,1.75,1.229s1.396,0.625,1.854,0.583s5.292-1.375,5.625-1.75S82.917,7.23,83.25,7.5s2.709,1,3.042,0.729
	c0.333-0.271,4.229-3,4.229-3l5.167-2.583c0,0,4.625,1.271,4.688,1.292s3.167,2.188,3.229,2.229S107.021,9,107.021,9
	s3.292,2.313,3.354,2.334s2.396,0.917,2.646,0.938s1.959-0.083,2.417-0.188s1.771-0.584,1.813-0.646s2.021-1.313,2.021-1.313
	s2.958-1.188,3.375-1.542s2.168-1.75,2.584-2.021s2.229-0.813,2.291-0.813s1.668-0.042,1.896,0.021s2.292,0.458,2.688,0.792
	s1.458,1.708,1.771,1.938s2.645,1.375,3.791,1.417s2.417-1.167,2.854-1.5s2.375,0.354,2.688,0.646s1.458,0.98,1.688,0.896
	s1.729-1.417,1.729-1.417s1.207-0.042,1.479,0.125s1.875,1.687,1.938,1.708s1.167,0.375,1.167,0.375l1.938-1.416
	c0,0,2.229-1.104,2.229-1.167s2.187,1.166,2.416,1.229s2.084-0.957,2.146-1.041s2.438-0.667,2.438-0.667s1.854,1.126,1.916,1.136
	s1.771,0.094,1.979-0.261s2.146-1.875,2.208-1.917s2.771-1.104,2.771-1.104s2.625,1.667,2.688,1.688s1.792-0.458,1.875-0.708
	s1.625-1.667,1.646-1.729s1.813-0.875,2.313-0.521s2.501,2.271,2.979,2.646s2.854,2.479,2.979,2.604s4.063,2.459,4.063,2.459
	s2.438-2.354,2.542-2.542s3.792-3.417,3.854-3.438s2.791-0.75,2.791-0.75L200,5.313V15H0z"/>
</svg>
